<svg xmlns="http://www.w3.org/2000/svg" width="340" height="200" viewBox="0 0 340 200"><style>* {
          font-family: 'Segoe UI', Ubuntu, "Helvetica Neue", Sans-Serif
        }</style><g class="gpsc-root"><rect x="1" y="1" rx="5" ry="5" height="99%" width="99.41176470588235%" stroke="#000000" stroke-width="1" fill="#141439" stroke-opacity="0"></rect><text x="30" y="40" class="gpsc-item" style="--gpsc-i: 0; font-size: 22px; fill: #ffcc00;">Top Languages by Commit</text><g transform="translate(0,40)"><g transform="translate(40,0)"><rect y="18" width="14" height="14" class="gpsc-item" style="--gpsc-i: 0; stroke-width: 1px;" fill="#3572A5" stroke="#141439"></rect><rect y="43.2" width="14" height="14" class="gpsc-item" style="--gpsc-i: 1; stroke-width: 1px;" fill="#dea584" stroke="#141439"></rect><rect y="68.4" width="14" height="14" class="gpsc-item" style="--gpsc-i: 2; stroke-width: 1px;" fill="#b07219" stroke="#141439"></rect><rect y="93.60000000000002" width="14" height="14" class="gpsc-item" style="--gpsc-i: 3; stroke-width: 1px;" fill="#f1e05a" stroke="#141439"></rect><rect y="118.80000000000001" width="14" height="14" class="gpsc-item" style="--gpsc-i: 4; stroke-width: 1px;" fill="#00ADD8" stroke="#141439"></rect><rect y="144" width="14" height="14" class="gpsc-item" style="--gpsc-i: 5; stroke-width: 1px;" fill="#41b883" stroke="#141439"></rect><text x="16.8" y="30" class="gpsc-item" style="--gpsc-i: 0; fill: #8080ff; font-size: 14px;">Python</text><text x="16.8" y="55.2" class="gpsc-item" style="--gpsc-i: 1; fill: #8080ff; font-size: 14px;">Rust</text><text x="16.8" y="80.4" class="gpsc-item" style="--gpsc-i: 2; fill: #8080ff; font-size: 14px;">Java</text><text x="16.8" y="105.60000000000002" class="gpsc-item" style="--gpsc-i: 3; fill: #8080ff; font-size: 14px;">JavaScript</text><text x="16.8" y="130.8" class="gpsc-item" style="--gpsc-i: 4; fill: #8080ff; font-size: 14px;">Go</text><text x="16.8" y="156" class="gpsc-item" style="--gpsc-i: 5; fill: #8080ff; font-size: 14px;">Vue</text></g><g transform="translate( 230, 80 )"><g class="arc" style="--gpsc-i: 0;"><path d="M3.67394039744206e-15,-60A60,60,0,0,1,10.129204134837114,59.138813173708506L5.908702411988316,34.49764101799663A35,35,0,0,0,2.1431318985078682e-15,-35Z" style="fill: #3572A5; stroke-width: 2px;" stroke="#141439"></path></g><g class="arc" style="--gpsc-i: 1;"><path d="M10.129204134837114,59.138813173708506A60,60,0,0,1,-59.23884280044863,-9.526778241553421L-34.555991633595035,-5.557287307572829A35,35,0,0,0,5.908702411988316,34.49764101799663Z" style="fill: #dea584; stroke-width: 2px;" stroke="#141439"></path></g><g class="arc" style="--gpsc-i: 2;"><path d="M-59.23884280044863,-9.526778241553421A60,60,0,0,1,-42.78472126293097,-42.065040430900595L-24.957754070043066,-24.53794025135868A35,35,0,0,0,-34.555991633595035,-5.557287307572829Z" style="fill: #b07219; stroke-width: 2px;" stroke="#141439"></path></g><g class="arc" style="--gpsc-i: 3;"><path d="M-42.78472126293097,-42.065040430900595A60,60,0,0,1,-21.495742214482203,-56.01725686472454L-12.53918295844795,-32.67673317108931A35,35,0,0,0,-24.957754070043066,-24.53794025135868Z" style="fill: #f1e05a; stroke-width: 2px;" stroke="#141439"></path></g><g class="arc" style="--gpsc-i: 4;"><path d="M-21.495742214482203,-56.01725686472454A60,60,0,0,1,-1.628271427292984,-59.97790203199059L-0.9498249992542406,-34.98710951866118A35,35,0,0,0,-12.53918295844795,-32.67673317108931Z" style="fill: #00ADD8; stroke-width: 2px;" stroke="#141439"></path></g><g class="arc" style="--gpsc-i: 5;"><path d="M-1.628271427292984,-59.97790203199059A60,60,0,0,1,4.226888398968133e-14,-60L2.4656848993980778e-14,-35A35,35,0,0,0,-0.9498249992542406,-34.98710951866118Z" style="fill: #41b883; stroke-width: 2px;" stroke="#141439"></path></g></g></g></g></svg>