<svg xmlns="http://www.w3.org/2000/svg" width="340" height="200" viewBox="0 0 340 200"><style>* {
          font-family: 'Segoe UI', Ubuntu, "Helvetica Neue", Sans-Serif
        }</style><g class="gpsc-root"><rect x="1" y="1" rx="5" ry="5" height="99%" width="99.41176470588235%" stroke="#000000" stroke-width="1" fill="#141439" stroke-opacity="0"></rect><text x="30" y="40" class="gpsc-item" style="--gpsc-i: 0; font-size: 22px; fill: #ffcc00;">Top Languages by Commit</text><g transform="translate(0,40)"><g transform="translate(40,0)"><rect y="18" width="14" height="14" class="gpsc-item" style="--gpsc-i: 0; stroke-width: 1px;" fill="#3572A5" stroke="#141439"></rect><rect y="43.2" width="14" height="14" class="gpsc-item" style="--gpsc-i: 1; stroke-width: 1px;" fill="#b07219" stroke="#141439"></rect><rect y="68.4" width="14" height="14" class="gpsc-item" style="--gpsc-i: 2; stroke-width: 1px;" fill="#f1e05a" stroke="#141439"></rect><rect y="93.60000000000002" width="14" height="14" class="gpsc-item" style="--gpsc-i: 3; stroke-width: 1px;" fill="#00ADD8" stroke="#141439"></rect><rect y="118.80000000000001" width="14" height="14" class="gpsc-item" style="--gpsc-i: 4; stroke-width: 1px;" fill="#dea584" stroke="#141439"></rect><rect y="144" width="14" height="14" class="gpsc-item" style="--gpsc-i: 5; stroke-width: 1px;" fill="#41b883" stroke="#141439"></rect><text x="16.8" y="30" class="gpsc-item" style="--gpsc-i: 0; fill: #8080ff; font-size: 14px;">Python</text><text x="16.8" y="55.2" class="gpsc-item" style="--gpsc-i: 1; fill: #8080ff; font-size: 14px;">Java</text><text x="16.8" y="80.4" class="gpsc-item" style="--gpsc-i: 2; fill: #8080ff; font-size: 14px;">JavaScript</text><text x="16.8" y="105.60000000000002" class="gpsc-item" style="--gpsc-i: 3; fill: #8080ff; font-size: 14px;">Go</text><text x="16.8" y="130.8" class="gpsc-item" style="--gpsc-i: 4; fill: #8080ff; font-size: 14px;">Rust</text><text x="16.8" y="156" class="gpsc-item" style="--gpsc-i: 5; fill: #8080ff; font-size: 14px;">Vue</text></g><g transform="translate( 230, 80 )"><g class="arc" style="--gpsc-i: 0;"><path d="M3.67394039744206e-15,-60A60,60,0,1,1,-49.661339889413426,33.67122392174295L-28.969114935491167,19.641547287683387A35,35,0,1,0,2.1431318985078682e-15,-35Z" style="fill: #3572A5; stroke-width: 2px;" stroke="#141439"></path></g><g class="arc" style="--gpsc-i: 1;"><path d="M-49.661339889413426,33.67122392174295A60,60,0,0,1,-54.23707197526628,-25.658137569780564L-31.638291985571996,-14.96724691570533A35,35,0,0,0,-28.969114935491167,19.641547287683387Z" style="fill: #b07219; stroke-width: 2px;" stroke="#141439"></path></g><g class="arc" style="--gpsc-i: 2;"><path d="M-54.23707197526628,-25.658137569780564A60,60,0,0,1,-23.94498600552079,-55.01488566920242L-13.96790850322046,-32.09201664036808A35,35,0,0,0,-31.638291985571996,-14.96724691570533Z" style="fill: #f1e05a; stroke-width: 2px;" stroke="#141439"></path></g><g class="arc" style="--gpsc-i: 3;"><path d="M-23.94498600552079,-55.01488566920242A60,60,0,0,1,-10.8864757276485,-59.004107028505395L-6.350444174461625,-34.41906243329481A35,35,0,0,0,-13.96790850322046,-32.09201664036808Z" style="fill: #00ADD8; stroke-width: 2px;" stroke="#141439"></path></g><g class="arc" style="--gpsc-i: 4;"><path d="M-10.8864757276485,-59.004107028505395A60,60,0,0,1,-2.735828731102656,-59.93759455595522L-1.595900093143216,-34.96359682430721A35,35,0,0,0,-6.350444174461625,-34.41906243329481Z" style="fill: #dea584; stroke-width: 2px;" stroke="#141439"></path></g><g class="arc" style="--gpsc-i: 5;"><path d="M-2.735828731102656,-59.93759455595522A60,60,0,0,1,-1.1021821192326178e-14,-60L-6.429395695523604e-15,-35A35,35,0,0,0,-1.595900093143216,-34.96359682430721Z" style="fill: #41b883; stroke-width: 2px;" stroke="#141439"></path></g></g></g></g></svg>