<svg xmlns="http://www.w3.org/2000/svg" width="340" height="200" viewBox="0 0 340 200"><style>* {
          font-family: 'Segoe UI', Ubuntu, "Helvetica Neue", Sans-Serif
        }</style><g class="gpsc-root"><rect x="1" y="1" rx="5" ry="5" height="99%" width="99.41176470588235%" stroke="#000000" stroke-width="1" fill="#141439" stroke-opacity="0"></rect><text x="30" y="40" class="gpsc-item" style="--gpsc-i: 0; font-size: 22px; fill: #ffcc00;">Top Languages by Commit</text><g transform="translate(0,40)"><g transform="translate(40,0)"><rect y="18" width="14" height="14" class="gpsc-item" style="--gpsc-i: 0; stroke-width: 1px;" fill="#3572A5" stroke="#141439"></rect><rect y="43.2" width="14" height="14" class="gpsc-item" style="--gpsc-i: 1; stroke-width: 1px;" fill="#dea584" stroke="#141439"></rect><rect y="68.4" width="14" height="14" class="gpsc-item" style="--gpsc-i: 2; stroke-width: 1px;" fill="#b07219" stroke="#141439"></rect><rect y="93.60000000000002" width="14" height="14" class="gpsc-item" style="--gpsc-i: 3; stroke-width: 1px;" fill="#f1e05a" stroke="#141439"></rect><rect y="118.80000000000001" width="14" height="14" class="gpsc-item" style="--gpsc-i: 4; stroke-width: 1px;" fill="#00ADD8" stroke="#141439"></rect><rect y="144" width="14" height="14" class="gpsc-item" style="--gpsc-i: 5; stroke-width: 1px;" fill="#41b883" stroke="#141439"></rect><text x="16.8" y="30" class="gpsc-item" style="--gpsc-i: 0; fill: #8080ff; font-size: 14px;">Python</text><text x="16.8" y="55.2" class="gpsc-item" style="--gpsc-i: 1; fill: #8080ff; font-size: 14px;">Rust</text><text x="16.8" y="80.4" class="gpsc-item" style="--gpsc-i: 2; fill: #8080ff; font-size: 14px;">Java</text><text x="16.8" y="105.60000000000002" class="gpsc-item" style="--gpsc-i: 3; fill: #8080ff; font-size: 14px;">JavaScript</text><text x="16.8" y="130.8" class="gpsc-item" style="--gpsc-i: 4; fill: #8080ff; font-size: 14px;">Go</text><text x="16.8" y="156" class="gpsc-item" style="--gpsc-i: 5; fill: #8080ff; font-size: 14px;">Vue</text></g><g transform="translate( 230, 80 )"><g class="arc" style="--gpsc-i: 0;"><path d="M3.67394039744206e-15,-60A60,60,0,0,1,21.392532032079245,56.05675314586516L12.478977018712893,32.699772668421346A35,35,0,0,0,2.1431318985078682e-15,-35Z" style="fill: #3572A5; stroke-width: 2px;" stroke="#141439"></path></g><g class="arc" style="--gpsc-i: 1;"><path d="M21.392532032079245,56.05675314586516A60,60,0,0,1,-58.104568948927984,-14.961920573886026L-33.89433188687466,-8.727787001433514A35,35,0,0,0,12.478977018712893,32.699772668421346Z" style="fill: #dea584; stroke-width: 2px;" stroke="#141439"></path></g><g class="arc" style="--gpsc-i: 2;"><path d="M-58.104568948927984,-14.961920573886026A60,60,0,0,1,-40.53736013465532,-44.23485541191762L-23.64679341188227,-25.803665656951946A35,35,0,0,0,-33.89433188687466,-8.727787001433514Z" style="fill: #b07219; stroke-width: 2px;" stroke="#141439"></path></g><g class="arc" style="--gpsc-i: 3;"><path d="M-40.53736013465532,-44.23485541191762A60,60,0,0,1,-20.143419210249522,-56.51763143055581L-11.750327872645556,-32.96861833449089A35,35,0,0,0,-23.64679341188227,-25.803665656951946Z" style="fill: #f1e05a; stroke-width: 2px;" stroke="#141439"></path></g><g class="arc" style="--gpsc-i: 4;"><path d="M-20.143419210249522,-56.51763143055581A60,60,0,0,1,-1.5214962968733823,-59.980705639552134L-0.887539506509473,-34.98874495640541A35,35,0,0,0,-11.750327872645556,-32.96861833449089Z" style="fill: #00ADD8; stroke-width: 2px;" stroke="#141439"></path></g><g class="arc" style="--gpsc-i: 5;"><path d="M-1.5214962968733823,-59.980705639552134A60,60,0,0,1,-6.431252637433369e-14,-60L-3.7515640385027985e-14,-35A35,35,0,0,0,-0.887539506509473,-34.98874495640541Z" style="fill: #41b883; stroke-width: 2px;" stroke="#141439"></path></g></g></g></g></svg>