<svg xmlns="http://www.w3.org/2000/svg" width="340" height="200" viewBox="0 0 340 200"><style>* {
          font-family: 'Segoe UI', Ubuntu, "Helvetica Neue", Sans-Serif
        }</style><g class="gpsc-root"><rect x="1" y="1" rx="5" ry="5" height="99%" width="99.41176470588235%" stroke="#000000" stroke-width="1" fill="#141439" stroke-opacity="0"></rect><text x="30" y="40" class="gpsc-item" style="--gpsc-i: 0; font-size: 22px; fill: #ffcc00;">Top Languages by Commit</text><g transform="translate(0,40)"><g transform="translate(40,0)"><rect y="18" width="14" height="14" class="gpsc-item" style="--gpsc-i: 0; stroke-width: 1px;" fill="#3572A5" stroke="#141439"></rect><rect y="43.2" width="14" height="14" class="gpsc-item" style="--gpsc-i: 1; stroke-width: 1px;" fill="#dea584" stroke="#141439"></rect><rect y="68.4" width="14" height="14" class="gpsc-item" style="--gpsc-i: 2; stroke-width: 1px;" fill="#b07219" stroke="#141439"></rect><rect y="93.60000000000002" width="14" height="14" class="gpsc-item" style="--gpsc-i: 3; stroke-width: 1px;" fill="#f1e05a" stroke="#141439"></rect><rect y="118.80000000000001" width="14" height="14" class="gpsc-item" style="--gpsc-i: 4; stroke-width: 1px;" fill="#00ADD8" stroke="#141439"></rect><rect y="144" width="14" height="14" class="gpsc-item" style="--gpsc-i: 5; stroke-width: 1px;" fill="#41b883" stroke="#141439"></rect><text x="16.8" y="30" class="gpsc-item" style="--gpsc-i: 0; fill: #8080ff; font-size: 14px;">Python</text><text x="16.8" y="55.2" class="gpsc-item" style="--gpsc-i: 1; fill: #8080ff; font-size: 14px;">Rust</text><text x="16.8" y="80.4" class="gpsc-item" style="--gpsc-i: 2; fill: #8080ff; font-size: 14px;">Java</text><text x="16.8" y="105.60000000000002" class="gpsc-item" style="--gpsc-i: 3; fill: #8080ff; font-size: 14px;">JavaScript</text><text x="16.8" y="130.8" class="gpsc-item" style="--gpsc-i: 4; fill: #8080ff; font-size: 14px;">Go</text><text x="16.8" y="156" class="gpsc-item" style="--gpsc-i: 5; fill: #8080ff; font-size: 14px;">Vue</text></g><g transform="translate( 230, 80 )"><g class="arc" style="--gpsc-i: 0;"><path d="M3.67394039744206e-15,-60A60,60,0,0,1,20.38681002240737,56.430293080138L11.8923058464043,32.91767096341383A35,35,0,0,0,2.1431318985078682e-15,-35Z" style="fill: #3572A5; stroke-width: 2px;" stroke="#141439"></path></g><g class="arc" style="--gpsc-i: 1;"><path d="M20.38681002240737,56.430293080138A60,60,0,0,1,-59.788493531648506,-5.033491950527501L-34.87662122679496,-2.9362036378077088A35,35,0,0,0,11.8923058464043,32.91767096341383Z" style="fill: #dea584; stroke-width: 2px;" stroke="#141439"></path></g><g class="arc" style="--gpsc-i: 2;"><path d="M-59.788493531648506,-5.033491950527501A60,60,0,0,1,-44.53124778340313,-40.21154026959367L-25.97656120698516,-23.45673182392964A35,35,0,0,0,-34.87662122679496,-2.9362036378077088Z" style="fill: #b07219; stroke-width: 2px;" stroke="#141439"></path></g><g class="arc" style="--gpsc-i: 3;"><path d="M-44.53124778340313,-40.21154026959367A60,60,0,0,1,-22.589018777248473,-55.58539583992468L-13.176927620061608,-32.42481423995606A35,35,0,0,0,-25.97656120698516,-23.45673182392964Z" style="fill: #f1e05a; stroke-width: 2px;" stroke="#141439"></path></g><g class="arc" style="--gpsc-i: 4;"><path d="M-22.589018777248473,-55.58539583992468A60,60,0,0,1,-1.7153117351995715,-59.975475868483834L-1.00059851219975,-34.98569425661557A35,35,0,0,0,-13.176927620061608,-32.42481423995606Z" style="fill: #00ADD8; stroke-width: 2px;" stroke="#141439"></path></g><g class="arc" style="--gpsc-i: 5;"><path d="M-1.7153117351995715,-59.975475868483834A60,60,0,0,1,-1.1021821192326178e-14,-60L-6.429395695523604e-15,-35A35,35,0,0,0,-1.00059851219975,-34.98569425661557Z" style="fill: #41b883; stroke-width: 2px;" stroke="#141439"></path></g></g></g></g></svg>